<svg width="400" height="600" xmlns="http://www.w3.org/2000/svg">
 <g>
  <title>Wedding Dress Simulation</title>
  <rect fill="#fce4ec" id="canvas_background" height="602" width="402" y="-1" x="-1"/>
  <g display="none" overflow="visible" y="0" x="0" height="100%" width="100%" id="canvasGrid">
   <rect fill="url(#gridpattern)" stroke-width="0" y="0" x="0" height="100%" width="100%"/>
  </g>
 </g>
 <g>
  <title>Layer 1</title>
  <path id="svg_1" d="m200,100 c-30,0 -50,20 -50,50 l0,50 c0,0 -40,100 -50,200 c-10,100 20,150 100,150 c80,0 110,-50 100,-150 c-10,-100 -50,-200 -50,-200 l0,-50 c0,-30 -20,-50 -50,-50 z" fill="#ffffff" stroke="#ff69b4" stroke-width="5"/>
  <text transform="matrix(1 0 0 1 0 0)" xml:space="preserve" text-anchor="middle" font-family="Helvetica, Arial, sans-serif" font-size="24" id="svg_2" y="300" x="200" stroke-width="0" stroke="#000" fill="#ff69b4">Wedding Dress Applied</text>
  <text transform="matrix(1 0 0 1 0 0)" xml:space="preserve" text-anchor="middle" font-family="Helvetica, Arial, sans-serif" font-size="14" id="svg_3" y="330" x="200" stroke-width="0" stroke="#000" fill="#555555">(Simulation Result)</text>
 </g>
</svg>